<?xml version="1.0" encoding="UTF-8" standalone="no"?><!DOCTYPE svg PUBLIC "-//W3C//DTD SVG 1.1//EN" "http://www.w3.org/Graphics/SVG/1.1/DTD/svg11.dtd"><svg width="100%" height="100%" viewBox="0 0 30 30" version="1.1" xmlns="http://www.w3.org/2000/svg" xmlns:xlink="http://www.w3.org/1999/xlink" xml:space="preserve" style="fill-rule:evenodd;clip-rule:evenodd;stroke-linejoin:round;stroke-miterlimit:1.41421;"><path d="M7.5,24l0,-3l15,0l0,3l-15,0Zm-3.75,-3l0,-15l3.75,0l0,15l-3.75,0Zm3.75,-15l0,-3l15,0l0,3l-15,0Zm22.5,15l-3.75,0l0,-3l-7.5,0l0,-6l11.25,0l0,-9l-3.75,0l0,-3l-18.75,0l0,3l-3.75,0l0,3l-3.75,0l0,18l3.75,0l0,3l3.75,0l0,3l22.5,0l0,-9Z" style="fill-rule:nonzero;"/></svg>